<svg width="32" height="32" viewBox="0 0 32 32" fill="none" xmlns="http://www.w3.org/2000/svg">
<g clip-path="url(#clip0_16_86)">
<path d="M29 4H10.9482C10.0449 4 9.19825 4.40039 8.62499 5.10059L0.225587 15.3672C-0.0751955 15.7353 -0.0751955 16.2646 0.225587 16.6328L8.62599 26.9004C9.19825 27.5996 10.0449 28 10.9482 28H29C30.6543 28 32 26.6543 32 25V7C32 5.34571 30.6543 4 29 4V4ZM30 25C30 25.5518 29.5518 26 29 26H10.9482C10.6465 26 10.3643 25.8662 10.1738 25.6338L2.29199 16L10.1729 6.36719C10.3643 6.13379 10.6465 6 10.9482 6H29C29.5518 6 30 6.44824 30 7V25L30 25Z" fill="black"/>
<path d="M22.293 10.293L18 14.5859L13.707 10.293L12.293 11.707L16.5859 16L12.293 20.293L13.707 21.707L18 17.414L22.293 21.707L23.707 20.293L19.414 16L23.707 11.707L22.293 10.293Z" fill="black"/>
</g>
<defs>
<clipPath id="clip0_16_86">
<rect width="32" height="32" fill="white"/>
</clipPath>
</defs>
</svg>
