<svg width="40" height="40" viewBox="0 0 40 40" fill="none" xmlns="http://www.w3.org/2000/svg">
<path d="M34.4075 22.545L33.75 22.165C32.9675 21.7138 32.5 20.9037 32.5 20C32.5 19.0963 32.9675 18.2862 33.75 17.835L34.4075 17.455C36.2025 16.4175 36.8163 14.1275 35.78 12.3325L34.53 10.1675C33.4963 8.37625 31.1975 7.76125 29.4075 8.795L28.75 9.17375C27.9675 9.62625 27.0313 9.62625 26.25 9.17375C25.4675 8.72125 25 7.9125 25 7.00875V6.25C25 4.1825 23.3175 2.5 21.25 2.5H18.75C16.6825 2.5 15 4.1825 15 6.25V7.01C15 7.91375 14.5325 8.7225 13.75 9.175C12.9675 9.62625 12.0325 9.6275 11.25 9.175L10.5925 8.795C8.80252 7.76125 6.50377 8.37625 5.46877 10.1675L4.21877 12.3325C3.18252 14.1275 3.79627 16.4187 5.59127 17.455L6.25002 17.835C7.03252 18.2862 7.50002 19.0963 7.50002 20C7.50002 20.9037 7.03252 21.7138 6.25002 22.165L5.59252 22.545C3.79752 23.5812 3.18377 25.8725 4.22002 27.6675L5.47002 29.8325C6.50502 31.6237 8.80377 32.2388 10.5925 31.205L11.25 30.8262C12.0325 30.3725 12.9675 30.375 13.75 30.8262C14.5325 31.2787 15 32.0875 15 32.9912V33.75C15 35.8175 16.6825 37.5 18.75 37.5H21.25C23.3175 37.5 25 35.8175 25 33.75V32.99C25 32.0863 25.4675 31.2775 26.25 30.825C27.0313 30.3738 27.9675 30.3725 28.75 30.825L29.4075 31.205C31.1975 32.2375 33.4963 31.6225 34.53 29.8325L35.78 27.6675C36.8163 25.8725 36.2025 23.5812 34.4075 22.545ZM20 26.25C16.5538 26.25 13.75 23.4463 13.75 20C13.75 16.5538 16.5538 13.75 20 13.75C23.4463 13.75 26.25 16.5538 26.25 20C26.25 23.4463 23.4463 26.25 20 26.25Z" fill="white"/>
</svg>
