<svg width="31" height="31" viewBox="0 0 31 31" fill="none" xmlns="http://www.w3.org/2000/svg">
<path fill-rule="evenodd" clip-rule="evenodd" d="M13.1395 5.36031C14.0485 3.31478 16.9517 3.3148 17.8608 5.36031L19.8073 9.73995C20.4949 11.287 22.4598 11.7656 23.7818 10.708L26.7498 8.33365C28.6392 6.82211 31.3835 8.50481 30.8933 10.8743L28.1703 24.0351C27.7981 25.8344 26.2132 27.1249 24.3757 27.1249H6.62451C4.78703 27.1249 3.20218 25.8344 2.82988 24.0351L0.106963 10.8743C-0.383273 8.50481 2.36108 6.82211 4.25052 8.33365L7.21846 10.708C8.54044 11.7656 10.5054 11.287 11.1929 9.73995L13.1395 5.36031ZM15.5001 6.40951L13.5536 10.7892C12.1785 13.8833 8.24863 14.8404 5.60466 12.7253L2.63672 10.3509L5.35963 23.5116C5.48374 24.1115 6.01202 24.5416 6.62451 24.5416H24.3757C24.9882 24.5416 25.5165 24.1115 25.6406 23.5116L28.3636 10.3509L25.3956 12.7253C22.7517 14.8404 18.8218 13.8833 17.4467 10.7892L15.5001 6.40951Z" fill="white"/>
</svg>
