<svg width="31" height="31" viewBox="0 0 31 31" fill="none" xmlns="http://www.w3.org/2000/svg">
<path fill-rule="evenodd" clip-rule="evenodd" d="M13.1395 5.36025C14.0485 3.31472 16.9517 3.31474 17.8608 5.36025L19.8073 9.73989C20.4949 11.2869 22.4598 11.7655 23.7818 10.7079L26.7498 8.33359C28.6392 6.82204 31.3835 8.50475 30.8933 10.8742L28.1703 24.0351C27.7981 25.8344 26.2132 27.1249 24.3757 27.1249H6.62451C4.78703 27.1249 3.20218 25.8344 2.82988 24.0351L0.106963 10.8742C-0.383273 8.50475 2.36108 6.82204 4.25052 8.33359L7.21846 10.7079C8.54044 11.7655 10.5054 11.2869 11.1929 9.73989L13.1395 5.36025ZM15.5001 6.40945L13.5536 10.7891C12.1785 13.8832 8.24863 14.8403 5.60466 12.7252L2.63672 10.3508L5.35963 23.5116C5.48374 24.1114 6.01202 24.5415 6.62451 24.5415H24.3757C24.9882 24.5415 25.5165 24.1114 25.6406 23.5116L28.3636 10.3508L25.3956 12.7252C22.7517 14.8403 18.8218 13.8832 17.4467 10.7891L15.5001 6.40945Z" fill="white"/>
<path d="M26.375 26H4.625L1 8.82927H3.07143L8.25 12.0488L11.3571 10.439L15.5 4L19.125 10.439L23.7857 11.5122L30 8.82927L26.375 26Z" fill="#F2F559"/>
<path fill-rule="evenodd" clip-rule="evenodd" d="M13.1395 5.36025C14.0485 3.31472 16.9517 3.31474 17.8608 5.36025L19.8073 9.73989C20.4949 11.2869 22.4598 11.7655 23.7818 10.7079L26.7498 8.33359C28.6392 6.82204 31.3835 8.50475 30.8933 10.8742L28.1703 24.0351C27.7981 25.8344 26.2132 27.1249 24.3757 27.1249H6.62451C4.78703 27.1249 3.20218 25.8344 2.82988 24.0351L0.106963 10.8742C-0.383273 8.50475 2.36108 6.82204 4.25052 8.33359L7.21846 10.7079C8.54044 11.7655 10.5054 11.2869 11.1929 9.73989L13.1395 5.36025ZM15.5001 6.40945L13.5536 10.7891C12.1785 13.8832 8.24863 14.8403 5.60466 12.7252L2.63672 10.3508L5.35963 23.5116C5.48374 24.1114 6.01202 24.5415 6.62451 24.5415H24.3757C24.9882 24.5415 25.5165 24.1114 25.6406 23.5116L28.3636 10.3508L25.3956 12.7252C22.7517 14.8403 18.8218 13.8832 17.4467 10.7891L15.5001 6.40945Z" fill="white"/>
</svg>
