<svg width="50" height="50" viewBox="0 0 50 50" fill="none" xmlns="http://www.w3.org/2000/svg">
<circle cx="25" cy="25" r="24.5" fill="url(#paint0_linear_36_163)" stroke="white"/>
<path d="M25.0001 28.8272C20.1425 28.8272 16.1865 24.8712 16.1865 20.0136C16.1865 15.156 20.1425 11.2 25.0001 11.2C29.8577 11.2 33.8137 15.156 33.8137 20.0136C33.8137 24.8712 29.8577 28.8272 25.0001 28.8272ZM25.0001 13.7116C21.5317 13.7116 18.7073 16.536 18.7073 20.0044C18.7073 23.4728 21.5317 26.2972 25.0001 26.2972C28.4685 26.2972 31.2929 23.4728 31.2929 20.0044C31.2929 16.536 28.4685 13.7116 25.0001 13.7116Z" fill="white"/>
<path d="M37.5949 38.9012H35.0741C35.0741 33.3444 30.5569 28.8272 25.0001 28.8272C19.4433 28.8272 14.9261 33.3444 14.9261 38.9012H12.4053C12.4053 31.9552 18.0541 26.3064 25.0001 26.3064C31.9461 26.3064 37.5949 31.9552 37.5949 38.9012Z" fill="white"/>
<defs>
<linearGradient id="paint0_linear_36_163" x1="54.2553" y1="-4.78723" x2="8.51064" y2="42.5532" gradientUnits="userSpaceOnUse">
<stop stop-color="white"/>
<stop offset="1" stop-color="#27A8C2" stop-opacity="0"/>
</linearGradient>
</defs>
</svg>
